<svg width="249" xmlns="http://www.w3.org/2000/svg" viewBox="0 0 249 266"><defs><style>.cls-1,.cls-2{fill:#127dbf;}.cls-2,.cls-4{fill-rule:evenodd;}.cls-3{fill:#a0cae5;}.cls-4,.cls-5{fill:#5aa3d2;}.cls-6{fill:#00adee;}</style></defs><title>TRL-Badge-Fastest</title><g id="Badge-Fastest"><polygon class="cls-1" points="148.51 202.4 124.23 211.49 99.96 202.4 89.29 202.4 124.23 215.48 159.18 202.4 148.51 202.4"/><path class="cls-1" d="M158.62,46.41h-.53a12.86,12.86,0,0,0-11,5.57l-.05.08c-2-3.2-5.43-5.58-10.84-5.65h-.53a12.87,12.87,0,0,0-11,5.57c-2.06-3.21-5.41-5.62-10.85-5.69h-.51a13.17,13.17,0,0,0-9.78,4.05l.34-3.28h-24L78.14,64.52l8,1,0,0,.24,0a4,4,0,0,1,3.85-2.08c3.25.07,4.8,2.17,4.8,5,0,2.5-1.33,4.94-4.67,5a3.88,3.88,0,0,1-3.93-2.7,7.8,7.8,0,0,1-.24-2.36l-.25,0v0l-9.58,1c.51,2.43,1,4.7,3.06,6.85C83.11,80,88.48,80,90.21,80h.26c2.73,0,7.77-.23,11.29-3.87a8.14,8.14,0,0,0,.82-.93A12.79,12.79,0,0,0,113,80h.39a12.85,12.85,0,0,0,10.92-5.69,12.66,12.66,0,0,0,11.06,5.81h.37a12.89,12.89,0,0,0,11-5.76,12.66,12.66,0,0,0,11,5.76h.37c10.51-.21,14.16-9.39,14.16-17.35C172.25,56.19,169.59,46.55,158.62,46.41ZM93.66,57l-.39,0-.44,0h-.26a16.74,16.74,0,0,0-5.28.86,5.8,5.8,0,0,0-.69.37L87,53.79H101.2a19,19,0,0,0-1.62,4.86A13.62,13.62,0,0,0,93.93,57ZM113.34,73.4h0c-2.13,0-3.54-1.55-4.14-4a23,23,0,0,1-.44-5.23c0-3.19.21-7.35,1.41-9.44a4,4,0,0,1,3.21-2h.14c2.25,0,3.42,1.83,3.89,3.86a37.48,37.48,0,0,1,.58,7C118,68.13,117.25,73.38,113.34,73.4Zm22.35.12h-.05c-2.1,0-3.51-1.55-4.12-4a23.51,23.51,0,0,1-.44-5.22c0-3.19.19-7.36,1.41-9.44a4,4,0,0,1,3.2-2h.16c2.24,0,3.42,1.82,3.89,3.86a37.37,37.37,0,0,1,.57,7C140.31,68.24,139.6,73.5,135.69,73.52Zm22.4,0h0c-2.11,0-3.52-1.55-4.12-4a22.93,22.93,0,0,1-.44-5.22c0-3.19.19-7.36,1.41-9.44a4,4,0,0,1,3.19-2h.16c2.25,0,3.43,1.82,3.89,3.86a36.61,36.61,0,0,1,.58,7C162.72,68.24,162,73.5,158.09,73.52Z"/><polygon class="cls-2" points="88.15 42.16 88.15 36.82 91.34 36.82 91.34 23.38 88.15 23.38 88.15 17.62 105.22 17.62 105.22 23.38 102.03 23.38 102.03 36.8 105.22 36.8 105.22 42.16 88.15 42.16"/><path class="cls-2" d="M120.65,42.16V36.8h2.47V31.2c0-1.69-1.2-2.43-2.75-2.43a3.34,3.34,0,0,0-3.45,3.4V36.8h2.55v5.36H106.1V36.8h2.43v-8H106.1V23.38h10.55v3.7a4.1,4.1,0,0,0,.48-.53,8.53,8.53,0,0,1,7-3c4.05,0,7.34,1.64,7.34,6.15V36.8h2.17v5.36Z"/><path class="cls-2" d="M154.93,31.29l-7.22.81c-.09-2-.51-4.12-2.94-4.12-3.1,0-3.35,2.57-3.35,5.07h0v.05c0,2.47.25,5.06,3.35,5.06a2.82,2.82,0,0,0,3.06-2.91H155l-.07.62c-1.18,5.85-6.45,6.75-10.25,6.75-6,0-11.82-2.91-11.82-9.57v0c0-6.64,5.86-9.57,11.82-9.57C144.7,23.5,154.05,22.89,154.93,31.29Z"/><path class="cls-2" d="M160.5,39.2a3,3,0,1,1-3-3A3,3,0,0,1,160.5,39.2Z"/><rect class="cls-3" x="169.36" y="239.08" width="49.25" height="1.35"/><rect class="cls-3" x="169.36" y="234.52" width="29.81" height="1.35"/><rect class="cls-3" x="30.2" y="239.08" width="49.24" height="1.35"/><rect class="cls-3" x="49.64" y="234.52" width="29.81" height="1.35"/><rect class="cls-3" x="133.78" y="190.33" width="32.84" height="1.43"/><rect class="cls-3" x="133.78" y="195.71" width="32.84" height="1.43"/><rect class="cls-3" x="82.04" y="190.33" width="32.84" height="1.43"/><rect class="cls-3" x="82.04" y="195.71" width="32.84" height="1.43"/><polygon class="cls-4" points="124.56 187.77 126.08 192.44 130.98 192.44 127.01 195.32 128.53 199.98 124.56 197.1 120.59 199.98 122.11 195.32 118.14 192.44 123.04 192.44 124.56 187.77"/><path class="cls-4" d="M172.63,178.76s.55,1.51,3.4.48C175.38,178.58,174.56,177.57,172.63,178.76Z"/><path class="cls-4" d="M170,179.32s.54,1.51,3.4.47C172.74,179.14,171.93,178.12,170,179.32Z"/><path class="cls-4" d="M166.91,179.76s.52,1.88,3.59.94C169.82,179.85,169,178.53,166.91,179.76Z"/><path class="cls-4" d="M163.92,179.62s.13,2.4,3.33,2C166.76,180.47,166.21,178.67,163.92,179.62Z"/><path class="cls-4" d="M160.59,179.77s.14,2.44,3.37,2.07C163.47,180.63,162.91,178.81,160.59,179.77Z"/><path class="cls-4" d="M157.41,179.59s0,2.57,3.42,2.37C160.38,180.66,159.9,178.71,157.41,179.59Z"/><path class="cls-4" d="M172.51,177.67c2.24.16,2.58-.9,2.92-1.62C172.41,176.36,172.51,177.67,172.51,177.67Z"/><path class="cls-4" d="M174.56,177.79c2.58,1.08,3.43,0,4.15-.75-3.64-.87-4.17.61-4.2.72l-2.58,0a2.83,2.83,0,0,0,.83-1.15c-2,.15-2.65.77-2.86,1.18h-.78a3.74,3.74,0,0,0,.6-1.22c-1.81.18-2.53.77-2.81,1.25h-.71a4.32,4.32,0,0,0,.52-1.54c-2.05.12-2.63,1-2.78,1.56h-.79a4.45,4.45,0,0,0,.48-1.5c-2,.12-2.62.92-2.8,1.52H160a3.64,3.64,0,0,0,.6-1.88c-2.29.25-2.78,1.26-2.87,1.9l-4.2,0C159.93,180.58,172.93,178.11,174.56,177.79Z"/><path class="cls-4" d="M75.74,178.76s-.54,1.51-3.4.48C73,178.58,73.81,177.57,75.74,178.76Z"/><path class="cls-4" d="M78.37,179.32s-.54,1.51-3.4.47C75.63,179.14,76.45,178.12,78.37,179.32Z"/><path class="cls-4" d="M81.47,179.76s-.53,1.88-3.6.94C78.55,179.85,79.38,178.53,81.47,179.76Z"/><path class="cls-4" d="M84.45,179.62s-.13,2.4-3.33,2C81.61,180.47,82.16,178.67,84.45,179.62Z"/><path class="cls-4" d="M87.78,179.77s-.13,2.44-3.37,2.07C84.9,180.63,85.46,178.81,87.78,179.77Z"/><path class="cls-4" d="M91,179.59s0,2.57-3.42,2.37C88,180.66,88.47,178.71,91,179.59Z"/><path class="cls-4" d="M75.86,177.67c-2.23.16-2.58-.9-2.92-1.62C76,176.36,75.86,177.67,75.86,177.67Z"/><path class="cls-4" d="M73.81,177.79c-2.57,1.08-3.43,0-4.15-.75,3.64-.87,4.17.61,4.2.72l2.58,0a2.83,2.83,0,0,1-.83-1.15c2,.15,2.65.77,2.86,1.18h.78a3.74,3.74,0,0,1-.6-1.22c1.81.18,2.53.77,2.82,1.25h.7a4.12,4.12,0,0,1-.51-1.54c2,.12,2.62,1,2.77,1.56h.79a4.45,4.45,0,0,1-.48-1.5c2,.12,2.62.92,2.8,1.52h.84a3.73,3.73,0,0,1-.6-1.88c2.29.25,2.79,1.26,2.87,1.9l4.2,0C88.45,180.58,75.44,178.11,73.81,177.79Z"/><path class="cls-5" d="M97.68,173.72H99.2v9.72H97.68Z"/><path class="cls-5" d="M102.36,176.4v7H101v-9.72h1.92l1.56,5.82v-5.82h1.36v9.72h-1.56Z"/><path class="cls-5" d="M115.4,183.44h-1.54l-.26-1.77h-1.87l-.27,1.77h-1.4l1.56-9.72h2.23Zm-3.48-3.08h1.47l-.73-4.92Z"/><path class="cls-5" d="M120,180.62l1-6.9h2.12v9.72h-1.44v-7l-1.06,7h-1.44l-1.14-6.87v6.87h-1.33v-9.72h2.12Z"/><path class="cls-5" d="M126.53,177.82h2.09v1.38h-2.09v2.85h2.63v1.39H125v-9.72h4.16v1.39h-2.63Z"/><path class="cls-5" d="M134,183.44a3.09,3.09,0,0,1-.14-1.2v-1.52c0-.91-.31-1.24-1-1.24h-.53v4H130.8v-9.72h2.3c1.58,0,2.26.74,2.26,2.24v.76a1.94,1.94,0,0,1-1,2c.77.32,1,1.06,1,2.07v1.5a2.94,2.94,0,0,0,.16,1.18Zm-1.67-8.33v3h.6c.57,0,.92-.25.92-1v-1c0-.69-.24-1-.78-1Z"/><path class="cls-5" d="M137.07,173.72h1.52v9.72h-1.52Z"/><path class="cls-5" d="M144.82,179.81v1.29c0,1.56-.78,2.45-2.27,2.45s-2.28-.89-2.28-2.45v-5a2.13,2.13,0,0,1,2.28-2.44c1.49,0,2.27.89,2.27,2.44V177h-1.44v-1c0-.7-.31-1-.79-1s-.79.26-.79,1v5.24c0,.7.3,1,.79,1s.79-.25.79-1v-1.39Z"/><path class="cls-5" d="M151.38,183.44h-1.54l-.26-1.77h-1.87l-.27,1.77H146l1.55-9.72h2.24Zm-3.48-3.08h1.47l-.74-4.92Z"/><path class="cls-1" d="M81.24,163.86v2c0,2.4-1.2,3.78-3.52,3.78s-3.52-1.38-3.52-3.78V158c0-2.4,1.2-3.77,3.52-3.77s3.52,1.37,3.52,3.77v1.46H79v-1.61c0-1.07-.48-1.48-1.23-1.48s-1.22.41-1.22,1.48V166c0,1.07.47,1.46,1.22,1.46S79,167.07,79,166v-2.14Z"/><path class="cls-1" d="M88.92,158c0-2.4,1.26-3.77,3.58-3.77s3.58,1.37,3.58,3.77v7.81c0,2.4-1.26,3.78-3.58,3.78s-3.58-1.38-3.58-3.78Zm2.36,8c0,1.07.47,1.48,1.22,1.48s1.22-.41,1.22-1.48v-8.11c0-1.07-.47-1.48-1.22-1.48s-1.22.41-1.22,1.48Z"/><path class="cls-1" d="M109,165.1l1.61-10.66h3.28v15H111.7V158.69l-1.63,10.77h-2.23l-1.76-10.62v10.62H104v-15h3.29Z"/><path class="cls-1" d="M129.08,158.15v1.95c0,2.41-1.16,3.71-3.52,3.71h-1.11v5.65h-2.36v-15h3.47C127.92,154.44,129.08,155.75,129.08,158.15Zm-4.63-1.57v5.09h1.11c.75,0,1.16-.34,1.16-1.42V158c0-1.07-.41-1.42-1.16-1.42Z"/><path class="cls-1" d="M144,169.46h-2.38l-.41-2.73h-2.89l-.41,2.73h-2.17l2.41-15h3.45Zm-5.38-4.77h2.27l-1.14-7.59Z"/><path class="cls-1" d="M153.61,158.58v10.88h-2.13v-15h3l2.43,9v-9H159v15h-2.42Z"/><path class="cls-1" d="M169.31,164.48l-3-10h2.47l1.8,6.84,1.8-6.84h2.25l-3,10v5h-2.36Z"/><path class="cls-5" d="M170.52,47.39a18.53,18.53,0,0,1,4.13,7h13.63l-.78,22.78v.23l0,.71L124.23,96.39,61.36,78l0-.47,0-.61L60.6,54.34H75.4l.71-7H53.39l1.09,33.77,4,1.17,3.05.89,63,18.4,62.79-18.35,2.74-.8,4.31-1.26,1.17-33.82Z"/><polygon class="cls-6" points="124.44 109.7 124.44 109.73 124.5 109.72 124.44 109.7"/><polygon class="cls-6" points="124.56 109.73 124.56 109.7 124.5 109.72 124.56 109.73"/><polygon class="cls-6" points="124.56 143.93 124.56 143.9 124.5 143.91 124.56 143.93"/><polygon class="cls-6" points="124.44 143.9 124.44 143.93 124.5 143.91 124.44 143.9"/><path class="cls-1" d="M244.5,66.77c-2.87,4.16-9.41,13.64-10.13,14.7a1.25,1.25,0,0,0,0,1.41l10.13,14.7H222.25v-21a1.24,1.24,0,0,0-.53-1l-.15-.08a1.24,1.24,0,0,0-.14-.18c-3.29-2.83-6.49-5.71-9.57-8.58Z"/><path class="cls-1" d="M4.5,66.77c2.87,4.16,9.41,13.64,10.13,14.7a1.25,1.25,0,0,1,0,1.41L4.5,97.58H26.75v-21a1.24,1.24,0,0,1,.53-1l.15-.08a1.24,1.24,0,0,1,.14-.18c3.29-2.83,6.49-5.71,9.57-8.58Z"/><path class="cls-1" d="M39,78.91V68.46c-2.76,2.58-5.63,5.15-8.57,7.7C32.56,76.91,35.45,77.86,39,78.91Z"/><path class="cls-1" d="M210,78.91V68.46c2.76,2.58,5.63,5.15,8.57,7.7C216.44,76.91,213.55,77.86,210,78.91Z"/><path class="cls-1" d="M161.05,108.94a2.35,2.35,0,0,0-1.68,2.55v11.16c0,1.47.65,1.84,1.68,1.52a2.35,2.35,0,0,0,1.68-2.55V110.46C162.73,109,162.08,108.63,161.05,108.94Z"/><path class="cls-1" d="M220.06,77.75,124.5,105.67,28.94,77.75v40.83l95.5,29.36v0l.06,0,.06,0v0l95.5-29.36Zm-173,19.41-5.34-1.63v6.22L45.93,103v3l-4.19-1.28v8.53l-3.25-1V91.58l8.59,2.63Zm9.15,20.49-.56-3.91-4-1.22-.56,3.58-3-.91,3.31-19.65L56.2,97l3.3,21.67Zm9.85,3.25a6.48,6.48,0,0,1-4.84-6.67V113l3.07.94v1.47A2.3,2.3,0,0,0,66,117.89c1,.32,1.69,0,1.69-1.49,0-4.25-6.35-7-6.35-12.88,0-3.31,1.63-4.7,4.78-3.74a6.43,6.43,0,0,1,4.78,6.66v.65l-3.07-.94v-.86a2.29,2.29,0,0,0-1.62-2.53c-1-.31-1.62.07-1.62,1.54,0,4.25,6.34,7,6.34,12.89C70.92,120.49,69.27,121.87,66.08,120.9ZM82.61,108l-3.4-1v17.71l-3.24-1V106l-3.4-1v-3l10,3.07Zm11,3.36L88,109.66v5.75l4.45,1.36v3L88,118.36v6l5.6,1.71v2.95l-8.85-2.7V105.71l8.85,2.71Zm7.08,20.1a6.47,6.47,0,0,1-4.83-6.67v-1.27l3.06.94V126a2.31,2.31,0,0,0,1.69,2.52c1,.31,1.68,0,1.68-1.5,0-4.25-6.35-7-6.35-12.88,0-3.31,1.63-4.7,4.78-3.74A6.43,6.43,0,0,1,105.5,117v.65l-3.07-.94v-.86a2.29,2.29,0,0,0-1.62-2.53c-1-.31-1.62.07-1.62,1.54,0,4.25,6.34,7,6.34,12.89C105.53,131.06,103.88,132.45,100.69,131.47Zm16.53-12.89-3.4-1v17.71l-3.24-1V116.55l-3.39-1v-3l10,3.07Zm23.74.78-3.07.94v-2.22c0-1.47-.65-1.83-1.68-1.52a2.34,2.34,0,0,0-1.68,2.56v11.15c0,1.47.64,1.81,1.68,1.49a2.31,2.31,0,0,0,1.68-2.52v-3.81l-1.48.45v-2.95l4.55-1.39v6.55a6.49,6.49,0,0,1-4.84,6.68c-3.19,1-4.84-.41-4.84-3.71V120.32a6.48,6.48,0,0,1,4.84-6.68c3.19-1,4.84.4,4.84,3.71Zm9.62,10.74a5.55,5.55,0,0,1-.3-2.45V124.4c0-1.92-.65-2.42-2.12-2l-1.12.34v8.41l-3.25,1V111.52l4.9-1.5c3.36-1,4.81.09,4.81,3.28v1.62a5.7,5.7,0,0,1-2.13,4.84c1.63.18,2.16,1.58,2.16,3.74v3.18a5.39,5.39,0,0,0,.35,2.4Zm15.4-9.69a6.59,6.59,0,0,1-4.93,6.71c-3.19,1-4.93-.38-4.93-3.68V112.7a6.59,6.59,0,0,1,4.93-6.71c3.19-1,4.93.38,4.93,3.68Zm15.52.2-4.31,1.32L176,111.29l-1.18,11.37L170.38,124l-2.31-20,3.16-1L173,118.86l1.57-16.77,3.12-1L179.29,117,181,100.12l2.83-.87Zm7.91-2.42-3.25,1V98.53l3.25-1Zm13.36-4.11-3.33,1-4-13.72v15l-2.92.89V96.59l4.07-1.25,3.33,11.34V94.32l2.89-.89Zm12.48-17.51-3.06.94V95.29c0-1.47-.65-1.83-1.69-1.52a2.35,2.35,0,0,0-1.68,2.55v11.16c0,1.47.65,1.81,1.68,1.49a2.31,2.31,0,0,0,1.69-2.52v-3.81l-1.48.45v-3l4.54-1.39v6.55a6.49,6.49,0,0,1-4.83,6.68c-3.19,1-4.84-.41-4.84-3.71V97.53a6.48,6.48,0,0,1,4.84-6.68c3.18-1,4.83.4,4.83,3.71Z"/><path class="cls-1" d="M148.6,113l-1.56.48v6.34l1.26-.39a2.54,2.54,0,0,0,1.95-2.78v-2C150.25,113.14,149.75,112.64,148.6,113Z"/><polygon class="cls-1" points="52.1 109.84 55.22 110.8 53.66 99.88 52.1 109.84"/><polygon class="cls-5" points="185.59 133.23 185.59 133.32 139.61 148.9 185.49 136.22 183.4 197.87 124.45 219.73 65.17 197.54 63.21 136.12 109.43 148.9 63.12 133.21 63.12 133.14 56.09 130.98 58.39 202.43 124.44 227.15 190.16 202.78 192.63 131.06 185.59 133.23"/><path class="cls-5" d="M95.9,239.48,94,233.06h1.58l1.14,4.38h0l1.14-4.38h1.44l-1.9,6.42v3.18H95.9Z"/><path class="cls-5" d="M101.42,237.11h2.07v1.37h-2.07v2.81H104v1.37H99.92v-9.6H104v1.38h-2.61Z"/><path class="cls-5" d="M109.84,242.66h-1.52l-.26-1.74h-1.85l-.26,1.74h-1.39l1.54-9.6h2.2Zm-3.44-3h1.45l-.71-4.86h0Z"/><path class="cls-5" d="M113.69,242.66a3,3,0,0,1-.14-1.18V240c0-.89-.3-1.22-1-1.22h-.52v3.91h-1.51v-9.6h2.27c1.57,0,2.24.73,2.24,2.21V236a1.9,1.9,0,0,1-1,1.93v0c.76.31,1,1,1,2v1.49a2.84,2.84,0,0,0,.17,1.16Zm-1.64-8.22v2.94h.59c.56,0,.9-.24.9-1v-1c0-.68-.23-1-.77-1Z"/><path class="cls-5" d="M118.08,233c1.46,0,2.22.87,2.22,2.41v.3h-1.43v-.4c0-.68-.27-.94-.75-.94s-.75.26-.75.94.3,1.22,1.28,2.09c1.27,1.11,1.66,1.9,1.66,3a2.1,2.1,0,0,1-2.25,2.41c-1.48,0-2.24-.88-2.24-2.41v-.59h1.42v.68c0,.69.3.94.78.94s.78-.25.78-.94-.3-1.22-1.28-2.08c-1.26-1.11-1.66-1.91-1.66-3C115.86,233.83,116.61,233,118.08,233Z"/><path class="cls-5" d="M125.33,233c1.47,0,2.22.87,2.22,2.41v.3h-1.43v-.4c0-.68-.27-.94-.75-.94s-.75.26-.75.94.3,1.22,1.29,2.09c1.26,1.11,1.65,1.9,1.65,3,0,1.53-.76,2.41-2.24,2.41a2.1,2.1,0,0,1-2.25-2.41v-.59h1.42v.68c0,.69.31.94.78.94s.79-.25.79-.94-.31-1.22-1.29-2.08c-1.26-1.11-1.66-1.91-1.66-3C123.11,233.83,123.86,233,125.33,233Z"/><path class="cls-5" d="M128,233.06h4.66v1.38h-1.58v8.22h-1.5v-8.22H128Z"/><path class="cls-5" d="M136.46,242.66a3,3,0,0,1-.14-1.18V240c0-.89-.3-1.22-1-1.22h-.52v3.91h-1.51v-9.6h2.27c1.57,0,2.24.73,2.24,2.21V236a1.9,1.9,0,0,1-1,1.93v0c.75.31,1,1,1,2v1.49a2.68,2.68,0,0,0,.17,1.16Zm-1.64-8.22v2.94h.59c.56,0,.9-.24.9-1v-1c0-.68-.23-1-.77-1Z"/><path class="cls-5" d="M143.7,242.66h-1.52l-.26-1.74h-1.85l-.26,1.74h-1.39l1.54-9.6h2.2Zm-3.44-3h1.45l-.71-4.86h0Z"/><path class="cls-5" d="M144.4,233.06h1.51v9.6H144.4Z"/><path class="cls-5" d="M149.26,237.31h2.11v3.05c0,1.53-.76,2.41-2.24,2.41a2.1,2.1,0,0,1-2.25-2.41v-5c0-1.54.77-2.41,2.25-2.41s2.24.87,2.24,2.41v.93H150v-1c0-.68-.3-.94-.78-.94s-.78.26-.78.94v5.18c0,.69.3.94.78.94s.78-.25.78-.94v-1.76h-.69Z"/><path class="cls-5" d="M153.86,242.66h-1.51v-9.6h1.51v4.12h1.71v-4.12h1.53v9.6h-1.53v-4.11h-1.71Z"/><path class="cls-5" d="M157.76,233.06h4.66v1.38h-1.57v8.22h-1.51v-8.22h-1.58Z"/><path class="cls-5" d="M90.12,235.51a2.23,2.23,0,0,0-.66-.47,1.87,1.87,0,0,0-.82-.2,1.75,1.75,0,0,0-.72.15,1.5,1.5,0,0,0-.61.5,2.86,2.86,0,0,0-.42.91,5.81,5.81,0,0,0-.19,1.38,2,2,0,0,1,.41-.42,3.32,3.32,0,0,1,.49-.31,2.69,2.69,0,0,1,.51-.2,2.1,2.1,0,0,1,.48-.06,3.65,3.65,0,0,1,1.12.17,2.38,2.38,0,0,1,1.48,1.45,3.57,3.57,0,0,1,.2,1.29,3.18,3.18,0,0,1-.92,2.32,2.83,2.83,0,0,1-1,.63,3.51,3.51,0,0,1-1.21.22,3.4,3.4,0,0,1-1.33-.27,3.28,3.28,0,0,1-1.15-.83,4.26,4.26,0,0,1-.79-1.45,6.69,6.69,0,0,1-.3-2.14,7.45,7.45,0,0,1,.32-2.29,4.8,4.8,0,0,1,.85-1.59,3.52,3.52,0,0,1,1.22-.93,3.56,3.56,0,0,1,1.43-.3,3.52,3.52,0,0,1,1.62.34,3.85,3.85,0,0,1,1.13.79Zm-1.91,5.72a1.12,1.12,0,0,0,.84-.36,1.62,1.62,0,0,0,.35-1.17,1.31,1.31,0,0,0-.35-1.06,1.25,1.25,0,0,0-.88-.31,1.48,1.48,0,0,0-.73.21,2.05,2.05,0,0,0-.7.73,3.7,3.7,0,0,0,.23.93,2.07,2.07,0,0,0,.34.61,1.15,1.15,0,0,0,.9.42Z"/></g></svg>