<svg width="249" xmlns="http://www.w3.org/2000/svg" viewBox="0 0 249 266"><defs><style>.cls-1{fill:#127dbf;}.cls-2{fill:#a0cae5;}.cls-3{fill:#5aa3d2;}</style></defs><title>TRL-Badge-Glassdoor</title><g id="Badge-Glassdoor"><path id="door" class="cls-1" d="M85.41,214.63l.47,16.67a1.42,1.42,0,0,0,2.21,1.16l8.58-4.79a2.54,2.54,0,0,0,1.3-2.23L97.67,215l-2,.16.27,9.54a1.91,1.91,0,0,1-1.06,1.73l-5.45,2.74-.37-13.23a1.51,1.51,0,0,1,1.42-1.52l7.17-.16,0-1.3-10-.52A2.19,2.19,0,0,0,85.41,214.63Z"/><g id="glassdoor"><path class="cls-1" d="M106.73,223.14a3.39,3.39,0,0,1-2.29,1.38,2.73,2.73,0,0,1-2.43-.79c-.55-.62-.71-.94-.78-3.47s.09-2.91.59-3.67a3.36,3.36,0,0,1,2.35-1.44,2.47,2.47,0,0,1,2.35.77l0-.94,2-.26.25,8.9a4.25,4.25,0,0,1-3.87,4.56,4,4,0,0,1-3.23-1.1l1.4-1.33a2.22,2.22,0,0,0,1.76.59,2.12,2.12,0,0,0,2-2.26Zm-3.22-1a1.64,1.64,0,0,0,1.49.51,2.09,2.09,0,0,0,1.43-.9c.31-.46.34-.72.3-2.18s-.09-1.73-.42-2.1a1.63,1.63,0,0,0-1.47-.51,2.07,2.07,0,0,0-1.45.9c-.31.46-.34.72-.3,2.2S103.17,221.72,103.51,222.09Z"/><path class="cls-1" d="M109.81,210.86l2-.26.29,10.4c0,.42.25.53.7.47l.54-.08,0,1.71-.72.1c-1.34.18-2.47-.14-2.52-1.79Z"/><path class="cls-1" d="M119.92,221.47H120c-.36.78-1,1.07-2.24,1.24-2,.27-3.28-.8-3.32-2.39a3.09,3.09,0,0,1,2.91-3.14l2.46-.33,0-.9c0-.86-.55-1.1-1.87-.92-1,.13-1.38.37-1.69.94l-1.47-.91a4,4,0,0,1,3.07-1.76c2.27-.3,3.86.24,3.92,2.5l.18,6.14-2,.26Zm-.09-3.16-2.12.28c-1.08.15-1.58.71-1.56,1.38s.48,1.13,1.73,1c1.54-.21,2-.41,2-1.83Z"/><path class="cls-1" d="M124.37,218.9a3.51,3.51,0,0,0,2.93.78c1-.14,1.8-.64,1.78-1.42s-.51-.78-1.15-.75l-1.63.08c-1.53.08-2.67-.67-2.72-2.24,0-1.86,1.41-3,3.34-3.28a4.87,4.87,0,0,1,3.64.75l-1.1,1.49a3.81,3.81,0,0,0-2.49-.51c-1.17.16-1.56.68-1.54,1.31,0,.4.31.76,1.24.7l1.52-.09a2.26,2.26,0,0,1,2.74,2.38c0,1.79-1.59,3-3.72,3.33a5.31,5.31,0,0,1-4.09-1.09Z"/><path class="cls-1" d="M133,217.73a3.51,3.51,0,0,0,2.93.78c1-.14,1.8-.64,1.78-1.41s-.51-.79-1.15-.76l-1.63.08c-1.53.08-2.67-.67-2.72-2.24-.05-1.86,1.41-3,3.34-3.28a4.84,4.84,0,0,1,3.64.76l-1.1,1.49a3.81,3.81,0,0,0-2.49-.52c-1.18.16-1.56.69-1.54,1.32,0,.39.31.75,1.23.7l1.53-.1a2.26,2.26,0,0,1,2.74,2.38c.05,1.79-1.59,3-3.72,3.34a5.31,5.31,0,0,1-4.09-1.1Z"/><path class="cls-1" d="M146.54,217.74a4.11,4.11,0,0,1-2.38,1.39,2.72,2.72,0,0,1-2.51-.85c-.52-.58-.69-1.16-.76-3.42s.07-2.85.55-3.57a3.51,3.51,0,0,1,2.46-1.53,3.23,3.23,0,0,1,2.43.76l-.13-4.59,1.71-.23.36,12.66-1.71.23Zm-3.81-3.13c0,1.43.17,2.85,1.91,2.61s1.77-1.76,1.73-3.1-.17-2.82-1.89-2.59S142.69,213.21,142.73,214.61Z"/><path class="cls-1" d="M150.63,210a4.07,4.07,0,0,1,2.76-1.55,3.22,3.22,0,0,1,2.82.79c.73.68,1,1.4,1.09,3.37s-.21,2.78-.89,3.65a4.08,4.08,0,0,1-2.75,1.56,3.29,3.29,0,0,1-2.83-.8c-.72-.68-1-1.4-1.09-3.39S150,210.9,150.63,210Zm4.32.75a1.7,1.7,0,0,0-1.51-.46,2.08,2.08,0,0,0-1.46.87,3.31,3.31,0,0,0-.39,2.22c0,1.34.15,1.69.51,2.13a1.68,1.68,0,0,0,1.5.46,2.08,2.08,0,0,0,1.47-.87,3.29,3.29,0,0,0,.39-2.22C155.42,211.57,155.3,211.23,155,210.78Z"/><path class="cls-1" d="M159.6,208.81a4,4,0,0,1,2.75-1.55,3.22,3.22,0,0,1,2.82.8c.73.68,1,1.4,1.1,3.36s-.22,2.79-.9,3.66a4,4,0,0,1-2.75,1.55,3.25,3.25,0,0,1-2.82-.79c-.73-.68-1.05-1.4-1.1-3.39S158.91,209.68,159.6,208.81Zm4.3.76a1.7,1.7,0,0,0-1.5-.47,2.15,2.15,0,0,0-1.46.87,3.34,3.34,0,0,0-.39,2.23c0,1.34.15,1.68.51,2.12a1.68,1.68,0,0,0,1.5.47,2.15,2.15,0,0,0,1.47-.87,3.33,3.33,0,0,0,.39-2.23C164.38,210.36,164.26,210,163.9,209.57Z"/><path class="cls-1" d="M167.56,206.7l1.95-.26,0,1h0a3.31,3.31,0,0,1,2.36-1.42,2.75,2.75,0,0,1,1.94.43l-1.3,1.77a1.62,1.62,0,0,0-1.2-.3,2,2,0,0,0-1.72,2.15l.16,5.41-2,.26Z"/></g><path class="cls-1" d="M177.09,206.34a.32.32,0,0,0,0-.18.27.27,0,0,0,0-.15.25.25,0,0,0-.1-.08l-.14,0h-.15l-.4.05v.62l.32,0,.19,0a.44.44,0,0,0,.16-.06A.23.23,0,0,0,177.09,206.34Z"/><path class="cls-1" d="M176.61,205a1.88,1.88,0,0,0-1.6,1.87,1.46,1.46,0,0,0,1.7,1.42,1.87,1.87,0,0,0,1.59-1.87A1.44,1.44,0,0,0,176.61,205Zm.58,2.54-.55-.76-.32,0,0,.83-.31.05,0-1.94.75-.1a.71.71,0,0,1,.51.07.43.43,0,0,1,.18.39.48.48,0,0,1-.14.4.72.72,0,0,1-.35.2l.57.78Z"/><path class="cls-1" d="M45.92,125.41c-1.3.11-2.61.2-3.92.29-.45,2.7-.89,5.4-1.34,8.1l3.76-.26v3.86c-1.47.11-2.94.2-4.41.29-.43,2.66-.87,5.31-1.31,8-1.44.08-2.88.14-4.32.2q.65-4,1.31-8c-1.15.05-2.3.1-3.45.13L31,146c-1.46,0-2.91.06-4.37.07.45-2.63.9-5.27,1.34-7.9l-3.26,0V134.3c1.3,0,2.59,0,3.89,0,.44-2.67.89-5.35,1.33-8l-3.71.05v-3.84c1.45,0,2.91,0,4.36-.06l1.32-8c1.44,0,2.88-.1,4.32-.16-.44,2.68-.88,5.37-1.31,8l3.44-.16c.45-2.69.89-5.38,1.34-8.07,1.45-.09,2.91-.18,4.36-.29l-1.38,8.09q1.65-.1,3.3-.24Zm-8.25.54-3.46.16c-.45,2.68-.89,5.37-1.34,8.06l3.47-.14C36.78,131.34,37.23,128.65,37.67,126Z"/><path class="cls-1" d="M53.67,144.46c-1.6.17-3.2.32-4.81.46V122.64L47,122.8v-.62q1.27-4.44,2.53-8.9l4.16-.4Z"/><path class="cls-1" d="M80.52,137.86a3.14,3.14,0,0,1-3,3.38c-4.35.7-8.7,1.36-13,1.94V111.59q6.48-.87,13-1.93c1.93-.31,2.9.49,2.9,2.43v8.13a3.69,3.69,0,0,1-1,2.68c-.1.1-1,.76-2.55,2,1.65.72,2.53,1.11,2.63,1.19a2.7,2.7,0,0,1,1.13,2.41Zm-5-16.26V114q-3.06.49-6.12.93v9.27l3.76-.56C73.91,122.93,74.7,122.27,75.48,121.6Zm.13,16v-9l-2.4-1.16c-1.28.2-2.56.39-3.85.57v10.54Q72.5,138.07,75.61,137.57Z"/><path class="cls-1" d="M96.84,137.78q-6.77,1.31-13.55,2.49V108.68c4.48-.77,8.95-1.6,13.43-2.46v4.17c-2.85.55-5.7,1.09-8.54,1.6v9.23l7.35-1.37v4.09q-3.68.7-7.35,1.37v9.91q4.33-.78,8.66-1.62Z"/><path class="cls-1" d="M114.78,131.29a3.27,3.27,0,0,1-3,3.49q-4.91,1-9.83,2-3,.58-3-2.3v-7.53l4.89-1v6.44l6-1.21V125q-4.89-3.48-9.79-7A2.68,2.68,0,0,1,99,115.7v-7a3.24,3.24,0,0,1,3-3.48c3.28-.65,6.56-1.32,9.83-2q3-.61,3,2.25v7.07l-4.89,1v-6l-6,1.21v5.71q4.9,3.48,9.79,6.92a2.66,2.66,0,0,1,1.07,2.35Z"/><path class="cls-1" d="M131.8,103.22l-5.39,1.12v27.41l-4.87,1V105.36l-5.39,1.12V102.3L131.8,99Z"/><path class="cls-1" d="M156.74,111.25a3.25,3.25,0,0,1-3,3.51l-7.92,1.55v11.45l-4.88,1V97.15q6.39-1.29,12.8-2.53c2-.38,3,.41,3,2.34Zm-4.92-.17v-12l-6,1.18v12Z"/><path class="cls-1" d="M172,123q-6.42,1-12.85,2.23V93.61l4.89-.88V120.1q4-.7,8-1.35Z"/><path class="cls-1" d="M190.38,120.37c-1.61.19-3.23.39-4.84.61-.33-2-.66-3.91-1-5.87q-3.06.4-6.12.86l-1,6.15-4.82.75v-.09q3.17-16.27,6.33-32.51c1.71-.26,3.42-.5,5.14-.73Q187.24,104.93,190.38,120.37Zm-6.51-9.22q-1.2-7-2.38-13.92-1.22,7.29-2.41,14.59C180.68,111.59,182.27,111.36,183.87,111.15Z"/><path class="cls-1" d="M208.13,115.86c0,1.93-1,2.94-3,3.09q-5.08.38-10.19.91c-1.93.21-2.9-.64-2.9-2.57V91.5a2.91,2.91,0,0,1,2.9-3.23c3.4-.35,6.8-.66,10.19-.91,2-.14,3,.77,3,2.71v7.38c-1.62.11-3.24.22-4.87.35V91.56q-3.16.25-6.32.57V115.6q3.15-.31,6.32-.56V108.4c1.63-.13,3.25-.25,4.87-.35Z"/><path class="cls-1" d="M224.46,118.22q-6.78,0-13.56.37V87q6.72-.36,13.43-.37v4.18c-2.85,0-5.69,0-8.54.15v9.23q3.68-.14,7.35-.15v4.1q-3.67,0-7.35.14v9.91q4.34-.15,8.67-.15Z"/><path class="cls-1" d="M65.1,90.19a3.62,3.62,0,0,1-1,0,3.25,3.25,0,0,1-.76-.19,1.92,1.92,0,0,1-.57-.31,3.71,3.71,0,0,1-.4-.37,4.57,4.57,0,0,1-.86-3V79.81a5.58,5.58,0,0,1,.86-3.25,4.58,4.58,0,0,1,1-.93A3.84,3.84,0,0,1,65.1,75a2.89,2.89,0,0,1,2.7.84,4.5,4.5,0,0,1,.88,3v1l-1.94.25v-1a3.91,3.91,0,0,0-.18-1.35,1.3,1.3,0,0,0-.42-.66,1,1,0,0,0-.55-.18,2.5,2.5,0,0,0-.49,0,2.86,2.86,0,0,0-.5.11,1.4,1.4,0,0,0-.54.32,2.05,2.05,0,0,0-.44.77,4.83,4.83,0,0,0-.17,1.41v6.51a2.88,2.88,0,0,0,.47,1.87,1.07,1.07,0,0,0,.37.26,1.42,1.42,0,0,0,.81.06,1.74,1.74,0,0,0,.81-.27,2.74,2.74,0,0,0,.38-.36,3.63,3.63,0,0,0,.45-2v-1l1.94-.25v1a5.47,5.47,0,0,1-.88,3.24,4.53,4.53,0,0,1-1,.94A3.45,3.45,0,0,1,65.1,90.19Z"/><path class="cls-1" d="M79.15,88.32a3,3,0,0,1-1.73-.16,3,3,0,0,1-1-.67,4.55,4.55,0,0,1-.86-3V77.94a5.53,5.53,0,0,1,.86-3.24,3.34,3.34,0,0,1,.4-.47,3.08,3.08,0,0,1,.57-.46,4.49,4.49,0,0,1,.76-.38,4,4,0,0,1,1-.25,3.26,3.26,0,0,1,1.75.16,3.05,3.05,0,0,1,1,.68,4.55,4.55,0,0,1,.86,3v6.53a5.55,5.55,0,0,1-.86,3.24,4.14,4.14,0,0,1-1,.93A3.62,3.62,0,0,1,79.15,88.32Zm0-13.22a4.2,4.2,0,0,0-.5.11,1.32,1.32,0,0,0-.54.33,2,2,0,0,0-.44.75,4.71,4.71,0,0,0-.17,1.4v6.53a4.2,4.2,0,0,0,.17,1.36,1.4,1.4,0,0,0,.44.65,1,1,0,0,0,.54.18,2.64,2.64,0,0,0,.5,0,3,3,0,0,0,.49-.11A1.26,1.26,0,0,0,80.2,86a1.93,1.93,0,0,0,.44-.76,4.65,4.65,0,0,0,.17-1.41V77.25a4.22,4.22,0,0,0-.17-1.35,1.41,1.41,0,0,0-.44-.64,1,1,0,0,0-.56-.18A2.5,2.5,0,0,0,79.15,75.1Z"/><path class="cls-1" d="M93.35,86.46a3,3,0,0,1-1.63-.15,2.39,2.39,0,0,1-.92-.65,4,4,0,0,1-.82-2.8V71.72l1.92-.25V82.61a3.73,3.73,0,0,0,.15,1.2,1.21,1.21,0,0,0,.38.57.74.74,0,0,0,.47.17,3.19,3.19,0,0,0,.45,0l.45-.09a1,1,0,0,0,.47-.29,1.79,1.79,0,0,0,.38-.68,4,4,0,0,0,.15-1.23V71.08l1.92-.25V82a5,5,0,0,1-.82,3,3.57,3.57,0,0,1-.92.89A3.49,3.49,0,0,1,93.35,86.46Z"/><path class="cls-1" d="M106.3,84.75l-1.92.26V69.82l1.61-.21,3.68,8.71V69.13l1.94-.26V84.05l-1.64.22-3.67-8.7Z"/><path class="cls-1" d="M127.7,68.71l-3.29.44V82.37l-1.94.26V69.4l-3.29.43v-2l8.52-1.12Z"/><path class="cls-1" d="M140.57,72.79a3.12,3.12,0,0,1,.85,1.16,4.38,4.38,0,0,1,.29,1.65v4.49l-1.94.26V75.86c0-1.33-.64-1.92-1.92-1.75l-1,.13-.24,0v6.49l-1.92.25V65.83l3.12-.41a3.24,3.24,0,0,1,2.92.77,4.29,4.29,0,0,1,.9,3,5.42,5.42,0,0,1-.9,3.31l-.09.12A.63.63,0,0,1,140.57,72.79Zm-2.72-.63a2.35,2.35,0,0,0,1.07-.33,1.72,1.72,0,0,0,.38-.34,3.48,3.48,0,0,0,.45-2,4.8,4.8,0,0,0-.12-1.21,1.42,1.42,0,0,0-.36-.68.94.94,0,0,0-.59-.26,4,4,0,0,0-.83,0l-1.2.16v4.77l.24,0Z"/><path class="cls-1" d="M159.28,62.62,155,71v7.35l-1.92.25V71.27L148.76,64l2.2-.29,3,5.16,3.06-6Z"/><path class="cls-1" d="M165.83,61.76l1.92-.25v3.11l-1.92.25Z"/><path class="cls-1" d="M178.78,75.22a2.91,2.91,0,0,1-2.72-.82,4.44,4.44,0,0,1-.88-3v-1l1.92-.26v1a2.83,2.83,0,0,0,.47,1.86,1.07,1.07,0,0,0,.37.25,1.67,1.67,0,0,0,.84,0,1.72,1.72,0,0,0,.88-.35,2.18,2.18,0,0,0,.5-.64,2.59,2.59,0,0,0,.22-.78,4.81,4.81,0,0,0,.05-.71,2.12,2.12,0,0,0-.16-.89,1.65,1.65,0,0,0-.43-.57,2,2,0,0,0-.59-.35q-.33-.13-.66-.24l-.36-.11c-.22-.07-.5-.17-.83-.3a3.5,3.5,0,0,1-1-.6,3.57,3.57,0,0,1-1.23-2.89,6.17,6.17,0,0,1,.26-1.8,4.6,4.6,0,0,1,.73-1.47,4.18,4.18,0,0,1,1.15-1,3.7,3.7,0,0,1,1.46-.52,2.93,2.93,0,0,1,2.72.84,4.58,4.58,0,0,1,.87,3v1l-1.94.25v-1a4.22,4.22,0,0,0-.17-1.35,1.31,1.31,0,0,0-.44-.66,1,1,0,0,0-.55-.18,3.55,3.55,0,0,0-.49,0,1.52,1.52,0,0,0-.92.41,2.14,2.14,0,0,0-.5.76,2.92,2.92,0,0,0-.22.83c0,.27,0,.47,0,.61a2.16,2.16,0,0,0,.17.9,1.77,1.77,0,0,0,.43.6,2.07,2.07,0,0,0,.6.39,3.43,3.43,0,0,0,.7.25l.33.1.79.26a3.2,3.2,0,0,1,1,.58,3.46,3.46,0,0,1,1.26,2.86,5.28,5.28,0,0,1-.85,3A3.85,3.85,0,0,1,178.78,75.22Z"/><path class="cls-1" d="M97.33,61.9v.31L95,62.52l-1.42-2.27-1.09.15v2.45l-2.12.28V54.8L94,54.32c3.24-.42,3.83,3.45,1.74,5.15ZM94,56.22l-1.51.2v2.09l1.51-.2C95.11,58.16,95.17,56.08,94,56.22Z"/><path class="cls-1" d="M103.26,60.38l-3.26.43-.48,1.11-2.07.27v-.31l3.72-8.62.91-.12,3.73,7.64v.31l-2.07.28Zm-1.64-3.81-.92,2.32,1.86-.25Z"/><path class="cls-1" d="M105.5,54.71V52.8l6.14-.81V53.9l-2,.26v6.43l-2.09.28V54.44Z"/><path class="cls-1" d="M118,53.06l-3.06.4v1.18l2.81-.37v1.9l-2.81.37V58l3.17-.42v1.9l-5.27.69V51.84l5.16-.68Z"/><path class="cls-1" d="M122.91,58.84l-3.11.41V50.92l3.11-.41C128.29,49.83,128.29,58.11,122.91,58.84Zm-1-1.81,1-.13c2.63-.34,2.63-4.8,0-4.45l-1,.13Z"/><path class="cls-1" d="M130.75,51.38v-1.9l6.14-.81v1.91l-2,.26v6.43l-2.09.27V51.12Z"/><path class="cls-1" d="M145,55.94l-2.16.29V52.88l-2.55.34v3.34l-2.16.29V48.51l2.16-.28v3l2.55-.33v-3l2.16-.28Z"/><path class="cls-1" d="M152.12,48.57l-3.06.4v1.18l2.81-.37v1.9l-2.81.37v1.46l3.16-.42V55l-5.26.69V47.35l5.16-.68Z"/><path class="cls-1" d="M37.25,173.48c-2.24-.38-4.46-.77-6.69-1.19q.24,6.08.62,12.16-3.78,5.34-7.71,10.61,13.86,2.69,28,4.1c-4.46-1.79-9.73-4-14.12-6q-2.74-.39-5.47-.84Z"/><path class="cls-1" d="M66.35,171.68l.25.12,0-.1Z"/><path class="cls-1" d="M197.87,157.9l.37-.25-.39.14Z"/><path class="cls-1" d="M232.21,167.6q-3.93-4.24-7.72-8.59.39-6.18.62-12.32-3.87,1.76-7.77,3.42L222.77,168q-3.47,1.47-7,2.86c-4.19,2.92-8.82,6-12.85,8.67Q217.72,174.21,232.21,167.6Z"/><path class="cls-1" d="M188.09,156l.24-.18-.25.09Z"/><path class="cls-2" d="M26.09,98.2l-5.51,4.39,1.9,5.06a4.73,4.73,0,0,0,1.69.18c68.41-5,136.82-26.08,205.22-30.27C161.62,78.54,93.85,96.07,26.09,98.2Z"/><path class="cls-2" d="M223.28,126.7c-68.57,5.34-137.14,26-205.71,30.09,69.56-1,139.14-18.94,208.71-20.71a3.82,3.82,0,0,0,.9-.11l1.56-5.66Z"/><polygon class="cls-3" points="16.11 94.26 17.95 99.15 23.17 98.92 19.08 102.18 20.92 107.07 16.56 104.19 12.47 107.45 13.86 102.41 9.5 99.53 14.72 99.3 16.11 94.26"/><polygon class="cls-3" points="232.44 121.61 234.28 126.5 239.5 126.27 235.41 129.53 237.25 134.42 232.89 131.54 228.8 134.8 230.19 129.76 225.83 126.88 231.05 126.65 232.44 121.61"/><path class="cls-3" d="M113.36,156.19a2.63,2.63,0,1,1-2.84-2.41A2.63,2.63,0,0,1,113.36,156.19Z"/><path class="cls-3" d="M100.59,157.06a1.81,1.81,0,1,1-2-1.65A1.81,1.81,0,0,1,100.59,157.06Z"/><path class="cls-3" d="M88.76,158.1a1.39,1.39,0,1,1-1.5-1.27A1.39,1.39,0,0,1,88.76,158.1Z"/><path class="cls-3" d="M77.6,159.07a1.11,1.11,0,0,1-2.21.18,1.11,1.11,0,1,1,2.21-.18Z"/><path class="cls-3" d="M119.86,155.34a4.19,4.19,0,1,1,4.52,3.84A4.19,4.19,0,0,1,119.86,155.34Z"/><path class="cls-3" d="M135,153.69a2.63,2.63,0,1,1,2.84,2.41A2.63,2.63,0,0,1,135,153.69Z"/><path class="cls-3" d="M147.74,151.74a1.81,1.81,0,1,1,3.6-.29,1.81,1.81,0,1,1-3.6.29Z"/><path class="cls-3" d="M159.57,149.63a1.39,1.39,0,1,1,1.5,1.27A1.39,1.39,0,0,1,159.57,149.63Z"/><path class="cls-3" d="M170.73,147.6a1.11,1.11,0,1,1,1.19,1A1.11,1.11,0,0,1,170.73,147.6Z"/><path class="cls-1" d="M126.63,194.69a.47.47,0,0,0-.27-.11,1.88,1.88,0,0,0-.33,0l-.48.06v2.25l.48-.06a.81.81,0,0,0,.64-.3,1.7,1.7,0,0,0,.2-.94,2.3,2.3,0,0,0-.06-.6A.61.61,0,0,0,126.63,194.69Z"/><path class="cls-1" d="M126.62,197.88a.36.36,0,0,0-.26-.11,1.82,1.82,0,0,0-.33,0l-.48.06v2.27L126,200a1.76,1.76,0,0,0,.33-.07.5.5,0,0,0,.27-.18.76.76,0,0,0,.18-.36,2.53,2.53,0,0,0,.06-.62,2,2,0,0,0-.07-.61A.58.58,0,0,0,126.62,197.88Z"/><path class="cls-1" d="M89.24,191.87V204l40,1.85,37.22-12V181.71A334.66,334.66,0,0,1,89.24,191.87Zm31.29,6.62-29.65-.66,29.65-.67Zm6.85-1.25a2,2,0,0,1,.43,1.45,2.42,2.42,0,0,1-.43,1.55A1.86,1.86,0,0,1,126,201l-.48.06-.92.12v-7.31l1.4-.19a1.43,1.43,0,0,1,1.35.38,2,2,0,0,1,.43,1.44,2.53,2.53,0,0,1-.43,1.57l-.07.1A.28.28,0,0,1,127.38,197.24Zm3.89-.49v3.54l-.93.12v-3.54l-2.06-3.5,1.06-.14,1.47,2.48,1.47-2.87,1.07-.14Zm4.52.28-.34-1.27,29-7.16Z"/><polygon class="cls-2" points="226.76 62.12 191.01 65.72 191.13 66.86 226.88 63.27 226.76 62.12"/><polygon class="cls-2" points="215.97 59.35 196.74 61.25 196.86 62.4 216.09 60.5 215.97 59.35"/><polygon class="cls-2" points="216.86 68.03 197.63 69.92 197.51 68.78 216.74 66.88 216.86 68.03"/><polygon class="cls-2" points="18.98 85.83 54.8 83.02 54.88 84.17 19.07 86.99 18.98 85.83"/><polygon class="cls-2" points="29.1 81.19 48.36 79.64 48.45 80.79 29.19 82.34 29.1 81.19"/><polygon class="cls-2" points="29.77 89.89 49.03 88.34 48.94 87.19 29.68 88.73 29.77 89.89"/><path class="cls-1" d="M209.47,165.31h0l-3.69-13.78Z"/><path class="cls-1" d="M148,167.15a.63.63,0,0,0-.44-.15,2.5,2.5,0,0,0-.61.09l-.89.21c0,1.17,0,2.35.05,3.52l.18,0,.71-.17a2,2,0,0,0,.79-.32A2.21,2.21,0,0,0,148,170a2.77,2.77,0,0,0,.31-1.5,3.35,3.35,0,0,0-.11-.89A.9.9,0,0,0,148,167.15Z"/><path class="cls-1" d="M108.56,173.44a1.15,1.15,0,0,0-.33-.5.86.86,0,0,0-.41-.17,2.28,2.28,0,0,0-.36,0,1.8,1.8,0,0,0-.37.05.75.75,0,0,0-.39.21,1.17,1.17,0,0,0-.32.53,3.12,3.12,0,0,0-.11,1l.06,4.83a3.55,3.55,0,0,0,.14,1,1.08,1.08,0,0,0,.34.5.74.74,0,0,0,.4.17,2.42,2.42,0,0,0,.37,0,3.06,3.06,0,0,0,.36-.05.91.91,0,0,0,.4-.21,1.27,1.27,0,0,0,.32-.54,3.19,3.19,0,0,0,.11-1c0-1.61,0-3.22-.07-4.83A2.94,2.94,0,0,0,108.56,173.44Z"/><path class="cls-1" d="M139.24,169.52a.91.91,0,0,0-.33-.45.69.69,0,0,0-.41-.11l-.36,0a2.93,2.93,0,0,0-.37.1,1.09,1.09,0,0,0-.4.27,1.38,1.38,0,0,0-.32.58,3.26,3.26,0,0,0-.11,1l.06,4.82a3,3,0,0,0,.15,1,.9.9,0,0,0,.33.46.68.68,0,0,0,.4.11,2,2,0,0,0,.37,0,2.54,2.54,0,0,0,.36-.1A1.12,1.12,0,0,0,139,177a1.49,1.49,0,0,0,.31-.59,3,3,0,0,0,.12-1.05c0-1.6,0-3.21-.07-4.82A2.71,2.71,0,0,0,139.24,169.52Z"/><path class="cls-1" d="M214.6,145.92q-4.64,2-9.31,3.77c-.52-1.95-1-3.9-1.57-5.84C153.63,163.38,101.05,170.22,51,163.69L49.4,170c-3.1-.41-6.2-.86-9.29-1.37L33.6,191.5q14.09,2.31,28.43,3.31c-5.46-2.47-12.18-5.68-16.84-8.12h0c53.83,7,110.37-.34,164.23-21.33-5.11,4-11.38,8.59-16.88,12.46v0q14.37-4.74,28.5-10.72Q217.83,156.52,214.6,145.92ZM89.6,178.5,51.51,176l38.15,1.22Zm9.28,4.29H97.46c0-3.27-.09-6.53-.14-9.79l-2.41,0c0-.48,0-1,0-1.44,2.08,0,4.17,0,6.25,0,0,.48,0,1,0,1.44-.8,0-1.61,0-2.41,0C98.79,176.27,98.84,179.53,98.88,182.79Zm10.71-1.24a3,3,0,0,1-.71.63,2.52,2.52,0,0,1-1.28.36,2.37,2.37,0,0,1-1.29-.23,2.84,2.84,0,0,1-.73-.56,3.66,3.66,0,0,1-.66-2.3c0-1.61,0-3.22-.07-4.83a3.87,3.87,0,0,1,.6-2.34,2.74,2.74,0,0,1,.29-.31,2,2,0,0,1,.42-.3,3.25,3.25,0,0,1,.56-.24,3.6,3.6,0,0,1,.72-.12,2.56,2.56,0,0,1,1.29.22,2.63,2.63,0,0,1,.73.56,3.62,3.62,0,0,1,.66,2.28c0,1.6,0,3.21.07,4.82A3.93,3.93,0,0,1,109.59,181.55Zm20-1.25-1.15.17-1.65-6.94-1.47,7.39-1.15.15q-1.31-5.44-2.62-10.91l1.47-.18q.83,3.48,1.67,7l1.47-7.36,1.15-.16,1.65,6.91,1.47-7.39,1.47-.24Zm10.65-2.83a3.46,3.46,0,0,1-.71.74,3,3,0,0,1-1.29.55,2.37,2.37,0,0,1-1.29,0,2,2,0,0,1-.73-.46,3.22,3.22,0,0,1-.66-2.19c0-1.61-.05-3.21-.07-4.82a4.3,4.3,0,0,1,.6-2.43,4.16,4.16,0,0,1,.29-.36,3.92,3.92,0,0,1,.42-.36,3.29,3.29,0,0,1,.56-.32,2.85,2.85,0,0,1,.73-.22,2.28,2.28,0,0,1,1.29,0,2,2,0,0,1,.72.44,3.17,3.17,0,0,1,.67,2.18c0,1.61,0,3.21.07,4.82A4.33,4.33,0,0,1,140.27,177.47Zm8.2-1c0-1.11,0-2.21,0-3.31s-.5-1.36-1.44-1.13l-.71.16-.18.05c0,1.59.05,3.19.07,4.78l-1.42.33-.15-11.2c.77-.17,1.53-.35,2.3-.54a2.3,2.3,0,0,1,2.17.33,2.93,2.93,0,0,1,.69,2.17,4.36,4.36,0,0,1-.63,2.52l-.07.1a.34.34,0,0,1-.08.09,1.92,1.92,0,0,1,.64.79,2.84,2.84,0,0,1,.23,1.19c0,1.1,0,2.21.05,3.31Zm10.09-2.74L156,169.9l-.57,1.09c0,1.22,0,2.44.05,3.66l-1.41.4L154,171h0v0q0-3.56-.1-7.11l1.41-.39c0,1.63,0,3.26.07,4.89,1-1.92,2-3.85,3.07-5.79l1.69-.51q-1.65,3.13-3.28,6.23,1.67,2.52,3.33,5Zm7-5.26-.4-1.26,38-11.43Zm43.9-3.19-3.69-13.78,3.69,13.78Z"/><path class="cls-3" d="M212.2,41.34a63.43,63.43,0,0,0,3-6.82,59.58,59.58,0,0,1-10.65,1.41h0l0-.32-.06-.51h0c-19-8.1-34.37,14.51-53.48,6.83a25.67,25.67,0,0,1,9.28,13.85s-.05.07,0,.1c15.72.44,28.9-15.37,45.76-8.44a28.75,28.75,0,0,1-11.37,1.33A72.39,72.39,0,0,0,219,47.16,71.85,71.85,0,0,1,212.2,41.34ZM200,39.57a22.13,22.13,0,0,0-4.69-.64,25.25,25.25,0,0,0-6.62.66,27.49,27.49,0,0,0-7.07,2.8c-.56.33-1.11.65-1.66,1l-.81.53c-.28.19-.55.37-.83.54a29.2,29.2,0,0,1-3.43,1.75,43.9,43.9,0,0,1-6.43,2.17c-1.92.51-3.54.83-4.69,1l-1.33.21-.48.06-.14-1.31.45,0c.3,0,.74-.08,1.31-.16,1.12-.16,2.72-.42,4.62-.85a43.68,43.68,0,0,0,6.36-1.92A27,27,0,0,0,178,43.82c.28-.15.55-.32.82-.49l.84-.51c.54-.35,1.14-.67,1.72-1a27.81,27.81,0,0,1,7.29-2.63,25.4,25.4,0,0,1,6.72-.47,23.43,23.43,0,0,1,4.7.78,13.47,13.47,0,0,1,1.7.58A13.28,13.28,0,0,0,200,39.57Z"/><path class="cls-3" d="M36.92,58c0-.28-.07-.56-.1-.84l.09.76V58Z"/><path class="cls-3" d="M90.37,50.71c-16.65,12.12-37.11-6.05-53.55,6.45,0,.28.07.56.1.84h0v-.08a63.72,63.72,0,0,1-10.59,1.3,65.23,65.23,0,0,0,4.54,5.89,72.36,72.36,0,0,1-5.2,7.31A72.79,72.79,0,0,0,49.76,68,29.15,29.15,0,0,1,38.35,69.5c14.65-10.84,31.33,1.27,46.46-3,0,0,0-.06,0-.09A25.58,25.58,0,0,1,90.37,50.71ZM80.28,61l-1.35.09c-1.16.06-2.81.12-4.8.06a44.92,44.92,0,0,1-6.75-.68,25.79,25.79,0,0,1-3.73-.94q-.46-.15-.93-.33l-.92-.34c-.61-.24-1.22-.42-1.84-.62a27.38,27.38,0,0,0-7.51-1.14,24.85,24.85,0,0,0-6.61.84,23.22,23.22,0,0,0-4.43,1.68,13.23,13.23,0,0,0-1.55.9,12.75,12.75,0,0,1,1.53-.95,23.3,23.3,0,0,1,4.39-1.82,25.47,25.47,0,0,1,6.66-1.05,27.83,27.83,0,0,1,7.7.93c.63.18,1.29.36,1.9.58l.93.31.91.29a26.64,26.64,0,0,0,3.64.79,43.26,43.26,0,0,0,6.62.44c2,0,3.57-.11,4.7-.21.57-.05,1-.09,1.31-.13l.45-.06L80.76,61Z"/></g></svg>